<svg ria-hiddaen="true" style="position: absolute; width: 0; height: 0; overflow: hidden;" 
version="1.1" xmlns="http://www.w3.org/2000/svg" xmlns:xlink="http://www.w3.org/1999/xlink">
<defs>
<symbol width="22" height="43" viewBox="0 0 22 43" fill="none" xmlns="http://www.w3.org/2000/svg" id="logo">
<path d="M21.9819 13.3206V6.66143C21.9819 5.92592 21.3853 5.32959 20.6493 5.32959H19.3168V1.33408C19.3168 0.598573 18.7202 0.002243 17.9843 0.002243C16.0977 0.002243 13.2087 -0.142261 9.8172 1.88846C7.70897 1.26125 6.21795 1.33408 4.65897 1.33408C3.923 1.33408 3.32644 1.93041 3.32644 2.66592V5.32959H1.99391C1.25793 5.32959 0.661377 5.92592 0.661377 6.66143V13.3206C0.661377 18.7447 4.73767 23.2348 9.98909 23.8922V41.2892C9.98909 42.0247 10.5856 42.621 11.3216 42.621C12.0576 42.621 12.6542 42.0247 12.6542 41.2892V36.6278H14.6529C18.6941 36.6278 21.9819 33.3417 21.9819 29.3027V27.3049C21.9819 26.5694 21.3853 25.9731 20.6493 25.9731H17.318C15.5478 25.9731 13.9222 26.6036 12.6542 27.6518V23.8916C17.8977 23.2426 21.9819 18.7747 21.9819 13.3206ZM19.3168 13.3206C19.3168 15.6909 18.268 17.8316 16.6104 19.2994C16.6366 19.0857 16.6517 18.8686 16.6517 18.648C16.6517 15.2752 15.3902 12.1918 13.3148 9.84277C15.0743 8.64279 17.1604 7.99327 19.3168 7.99327V13.3206ZM16.6517 2.66592V5.59829C16.4055 5.6484 16.161 5.70559 15.9184 5.76943C15.054 4.80227 14.0681 3.97828 12.9916 3.31244C14.1552 2.88725 15.3903 2.66592 16.6517 2.66592ZM5.9915 3.99776C8.63882 3.99776 11.2097 4.96392 13.2091 6.80993C12.5492 7.1503 11.9165 7.5471 11.3177 7.99701C9.76839 6.83282 7.95807 5.99793 5.9915 5.59737V3.99776ZM3.32644 13.3206V7.99327C9.20448 7.99327 13.9867 12.7729 13.9867 18.648C13.9867 20.1363 12.757 21.349 11.2516 21.3104C6.57023 21.1949 3.32644 17.4775 3.32644 13.3206ZM17.318 28.6367H19.3168V29.3027C19.3168 31.8729 17.2247 33.9641 14.6529 33.9641H12.6542V33.2982C12.6542 30.7279 14.7464 28.6367 17.318 28.6367Z" fill="white"/>
</symbol>
<symbol width="18" height="18" viewBox="0 0 18 18" fill="none" xmlns="http://www.w3.org/2000/svg" id="search">
<path d="M12.5 11H11.71L11.43 10.73C12.41 9.59 13 8.11 13 6.5C13 2.91 10.09 0 6.5 0C2.91 0 0 2.91 0 6.5C0 10.09 2.91 13 6.5 13C8.11 13 9.59 12.41 10.73 11.43L11 11.71V12.5L16 17.49L17.49 16L12.5 11ZM6.5 11C4.01 11 2 8.99 2 6.5C2 4.01 4.01 2 6.5 2C8.99 2 11 4.01 11 6.5C11 8.99 8.99 11 6.5 11Z" fill="white"/>
</symbol>
<symbol width="16" height="20" viewBox="0 0 16 20" fill="none" xmlns="http://www.w3.org/2000/svg" id="play">
<path d="M0 0.0833435V19.9167L15.125 10L0 0.0833435Z" fill="black"/>
</symbol>
<symbol width="12" height="20" viewBox="0 0 12 20" fill="currentColor" xmlns="http://www.w3.org/2000/svg" id='arrow'>
<path fill-rule="evenodd" clip-rule="evenodd" d="M4.96553 9.92507L11.0968 16.0563C11.895 16.8546 11.895 18.1487 11.0968 18.947C10.2986 19.7452 9.00441 19.7452 8.20618 18.947L0.598668 11.3395C-0.199556 10.5412 -0.199556 9.24705 0.598668 8.44883C0.70111 8.34639 0.81172 8.25709 0.928403 8.18094L8.51068 0.598667C9.3089 -0.199556 10.6031 -0.199555 11.4013 0.598668C12.1995 1.39689 12.1995 2.69107 11.4013 3.48929L4.96553 9.92507Z" fill="currentColor"/>
</symbol>
<symbol width="39" height="22" viewBox="0 0 39 22" fill="none" xmlns="http://www.w3.org/2000/svg" id="arrow-footer">
<path fill-rule="evenodd" clip-rule="evenodd" d="M37.292 16.6276C38.3222 17.6577 38.3222 19.328 37.292 20.3581C36.2618 21.3883 34.5916 21.3883 33.5614 20.3581L19.1386 5.9353L4.5032 20.5707C3.47303 21.6008 1.8028 21.6008 0.772627 20.5707C-0.257543 19.5405 -0.257542 17.8703 0.772628 16.8401L16.6276 0.985154C17.1526 0.460123 17.8439 0.202677 18.532 0.212815C19.4942 -0.199392 20.6516 -0.0127879 21.437 0.772628L37.292 16.6276Z" fill="white"/>
</symbol>
<symbol width="11" height="20" viewBox="0 0 11 20" fill="none" xmlns="http://www.w3.org/2000/svg" id="facebook">
<path fill-rule="evenodd" clip-rule="evenodd" d="M7.48877 19.7157V11.0005H10.3111L10.7721 7.12711H7.48877V5.24076C7.48877 4.24335 7.51595 3.2537 9.00261 3.2537H10.5084V0.484202C10.5084 0.442563 9.21499 0.348633 7.90649 0.348633C5.17373 0.348633 3.46261 1.9532 3.46261 4.8999V7.12711H0.442993V11.0005H3.46261V19.7157H7.48877Z" fill="white"/>
</symbol>
<symbol width="22" height="21" viewBox="0 0 22 21" fill="none" xmlns="http://www.w3.org/2000/svg" id="linkedin">
<path fill-rule="evenodd" clip-rule="evenodd" d="M21.3291 20.7152H17.3564V13.4806C17.3564 11.496 16.5151 10.3889 15.0065 10.3889C13.3648 10.3889 12.3904 11.5425 12.3904 13.4806V20.7152H8.41771V7.27762H12.3904V8.78883C12.3904 8.78883 13.6369 6.51271 16.4456 6.51271C19.2553 6.51271 21.3291 8.29681 21.3291 11.9891C21.3291 15.6803 21.3291 20.7152 21.3291 20.7152ZM2.60797 3.93006C1.53789 3.93006 0.670868 3.06265 0.670868 1.99296C0.670868 0.924047 1.53789 0.0566406 2.60797 0.0566406C3.67727 0.0566406 4.54429 0.924047 4.54429 1.99296C4.54508 3.06265 3.67727 3.93006 2.60797 3.93006ZM0.670871 20.7152H4.54429V7.80385H0.670871V20.7152Z" fill="white"/>
</symbol>
<symbol width="19" height="19" viewBox="0 0 19 19" fill="none" xmlns="http://www.w3.org/2000/svg" id="google">
<path fill-rule="evenodd" clip-rule="evenodd" d="M18.2691 7.87352H9.58335C9.58335 8.77681 9.58335 10.5834 9.57781 11.4867H14.6109C14.4181 12.39 13.7343 13.6546 12.768 14.2914C12.7671 14.2905 12.7662 14.2968 12.7644 14.2959C11.4798 15.1441 9.78452 15.3365 8.52578 15.0836C6.55276 14.6915 4.99133 13.2607 4.35734 11.4433C4.36103 11.4406 4.3638 11.4153 4.36657 11.4135C3.96975 10.2862 3.96975 8.77681 4.36657 7.87352H4.36565C4.8769 6.21328 6.48539 4.69846 8.46118 4.28385C10.0503 3.94692 11.8434 4.31185 13.1621 5.54575C13.3374 5.37412 15.5891 3.17552 15.758 2.99666C11.2528 -1.08349 4.03896 0.351834 1.33967 5.62072H1.33875C1.33875 5.62072 1.33967 5.62072 1.33414 5.63065C-0.0012027 8.21858 0.0541673 11.2681 1.34337 13.7323C1.33967 13.735 1.33691 13.7368 1.33414 13.7395C2.50244 16.0067 4.62865 17.7456 7.19044 18.4077C9.91187 19.1213 13.3753 18.6335 15.6953 16.5352C15.6962 16.5361 15.6971 16.537 15.698 16.5379C17.6637 14.7674 18.8874 11.7513 18.2691 7.87352Z" fill="white"/>
</symbol>

</defs>
</svg>